<svg xmlns="http://www.w3.org/2000/svg" viewBox="0 0 200 200" fill="none">
  <defs>
    <pattern id="geo" x="0" y="0" width="40" height="40" patternUnits="userSpaceOnUse">
      <path d="M20 0 L40 20 L20 40 L0 20 Z" stroke="#E8C76B" stroke-width=".6" fill="none" opacity=".6"></path>
      <circle cx="20" cy="20" r="4" stroke="#E8C76B" stroke-width=".6" fill="none" opacity=".5"></circle>
    </pattern>
  </defs>
  <circle cx="100" cy="100" r="96" fill="#0E0E0E" stroke="#C9A24A" stroke-width="2"></circle>
  <circle cx="100" cy="100" r="80" fill="url(#geo)" opacity=".35"></circle>
  
  <path d="M40 130 Q100 118 160 130 L160 146 Q100 134 40 146 Z" fill="#E8C76B"></path>
  <path d="M100 122 L100 142" stroke="#0E0E0E" stroke-width="1.4"></path>
  
  <path d="M70 130 L70 92 Q70 70 100 70 Q130 70 130 92 L130 130" stroke="#E8C76B" stroke-width="2.4" fill="none" stroke-linecap="round"></path>
  
  <path d="M100 86 L104 98 L116 98 L106 106 L110 118 L100 111 L90 118 L94 106 L84 98 L96 98 Z" fill="#E8C76B"></path>
  
  <circle cx="100" cy="14" r="3" fill="#C9A24A"></circle>
  <circle cx="100" cy="186" r="3" fill="#C9A24A"></circle>
  <circle cx="14" cy="100" r="3" fill="#C9A24A"></circle>
  <circle cx="186" cy="100" r="3" fill="#C9A24A"></circle>
</svg>